<svg width="24" height="24" viewBox="0 0 24 24" fill="none" xmlns="http://www.w3.org/2000/svg">
<path d="M4 18V11M8 18V11M12 18V11M16 18V11M20 18V11M1 22H23M12.37 2.15L21.37 5.75C21.72 5.89 22 6.31 22 6.68V10C22 10.55 21.55 11 21 11H3C2.45 11 2 10.55 2 10V6.68C2 6.31 2.28 5.89 2.63 5.75L11.63 2.15C11.83 2.07 12.17 2.07 12.37 2.15ZM22 22H2V19C2 18.45 2.45 18 3 18H21C21.55 18 22 18.45 22 19V22Z" stroke="white" stroke-miterlimit="10" stroke-linecap="round" stroke-linejoin="round"/>
<path d="M12 8.5C12.197 8.5 12.392 8.4612 12.574 8.38582C12.756 8.31044 12.9214 8.19995 13.0607 8.06066C13.1999 7.92137 13.3104 7.75601 13.3858 7.57403C13.4612 7.39204 13.5 7.19698 13.5 7C13.5 6.80302 13.4612 6.60796 13.3858 6.42597C13.3104 6.24399 13.1999 6.07863 13.0607 5.93934C12.9214 5.80005 12.756 5.68956 12.574 5.61418C12.392 5.5388 12.197 5.5 12 5.5C11.6022 5.5 11.2206 5.65804 10.9393 5.93934C10.658 6.22064 10.5 6.60218 10.5 7C10.5 7.39782 10.658 7.77936 10.9393 8.06066C11.2206 8.34196 11.6022 8.5 12 8.5Z" stroke="#CF70D2" stroke-width="1.5" stroke-miterlimit="10" stroke-linecap="round" stroke-linejoin="round"/>
</svg>
